<svg width="1440" height="207" viewBox="0 0 1440 207" fill="none" xmlns="http://www.w3.org/2000/svg">
<g opacity="0.5">
<path d="M1251.26 6.99414L1306.11 96.1602L1306.32 96.5088L1306.54 96.1582L1360.39 6.99414H1432.07L1354.66 126.761L1354.57 126.901L1354.67 127.038L1439.52 250.45H1363.68L1304.33 159.398L1304.12 159.072L1303.91 159.401L1246.21 250.45H1174.54L1255.67 127.92L1255.76 127.781L1255.67 127.644L1175.42 6.99414H1251.26Z" stroke="url(#paint0_linear_513_3359)" stroke-width="0.5"/>
<path d="M1067.68 0.35376C1103.43 0.35376 1133.02 12.9983 1153.67 35.2766C1174.32 57.5569 1186.06 89.4941 1186.06 128.112C1186.06 133.899 1185.85 139.791 1185.21 145.896H1009.84L1009.88 146.175C1012.02 164.473 1018.66 179.08 1029.08 189.115C1039.5 199.151 1053.68 204.591 1070.87 204.591C1083.7 204.591 1094.49 201.538 1103.28 195.447C1112.02 189.382 1118.75 180.318 1123.54 168.302H1184.9C1171.65 223.54 1127.66 257.086 1069 257.086C1032.54 257.086 1002.01 244.11 980.605 221.553C959.196 198.995 946.884 166.836 946.884 128.444C946.884 90.161 959.059 58.141 980.235 35.6936C1001.41 13.2474 1031.6 0.353773 1067.68 0.35376ZM1068.01 51.9641C1052.19 51.9641 1039.17 56.7949 1029.44 65.8752C1019.71 74.9534 1013.29 88.2588 1010.64 105.171L1010.6 105.459H1123.44L1123.4 105.171C1120.65 87.711 1114.53 74.404 1105.23 65.4622C1095.92 56.5168 1083.44 51.9642 1068.01 51.9641Z" stroke="url(#paint1_linear_513_3359)" stroke-width="0.5"/>
<path d="M840.025 6.99414V91.4932L840.521 91.5342C844.911 65.4488 853.302 44.3139 866.48 29.7031C879.651 15.101 897.623 6.99418 921.229 6.99414H935.479V68.8936H910.245C883.254 68.8936 865.674 74.4291 854.853 86.0391C844.035 97.645 840.025 115.264 840.025 139.288V250.45H774.729V6.99414H840.025Z" stroke="url(#paint2_linear_513_3359)" stroke-width="0.5"/>
<path d="M653.716 0.35376C682.41 0.35376 706.779 13.5337 723.981 36.1575C741.187 58.7856 751.227 90.8694 751.227 128.665C751.226 166.461 741.159 198.572 723.939 221.228C706.724 243.879 682.355 257.086 653.716 257.086C632.91 257.086 615.262 249.754 601.47 236.041C587.674 222.324 577.723 202.21 572.348 176.63L571.853 176.682V334.09H506.557V6.99243H571.853V80.6477L572.348 80.6995C577.723 55.1197 587.674 35.0331 601.47 21.344C615.262 7.65916 632.909 0.353776 653.716 0.35376ZM629.111 56.9426C610.923 56.9426 596.594 63.4139 586.818 75.6379C577.05 87.8538 571.853 105.785 571.853 128.665C571.853 151.545 577.05 169.504 586.832 181.747C596.621 193.999 610.977 200.497 629.221 200.497C647.625 200.497 661.71 194.334 671.186 182.243C680.653 170.164 685.491 152.204 685.491 128.665C685.491 105.127 680.653 87.194 671.172 75.1418C661.682 63.0792 647.57 56.9427 629.111 56.9426Z" stroke="url(#paint3_linear_513_3359)" stroke-width="0.5"/>
<path d="M361.554 0.35376C398.474 0.35376 427.818 10.1341 447.93 28.2122C468.037 46.2868 478.945 72.6838 478.945 105.984V250.448H413.649V188.298L413.157 188.237C402.313 230.824 367.709 257.086 320.473 257.086C295.75 257.086 275.19 249.909 260.813 237.358C246.441 224.809 238.231 206.873 238.23 185.312C238.23 162.265 247.559 143.92 264.751 131.328C281.953 118.73 307.049 111.876 338.597 111.876H413.649V105.984C413.649 89.1737 408.719 75.6896 399.531 66.4075C390.343 57.1249 376.926 52.0745 360.016 52.0745C343.007 52.0745 330.606 56.2611 322.457 63.884C314.355 71.4627 310.495 82.4023 310.448 95.887H245.371C245.434 66.4744 256.52 42.6275 276.516 26.1165C296.574 9.55401 325.62 0.353777 361.554 0.35376ZM345.407 151.649C331.765 151.649 321.3 154.003 314.239 158.618C307.162 163.245 303.526 170.13 303.526 179.115C303.526 188.434 307.41 195.732 314.73 200.69C322.038 205.638 332.749 208.242 346.396 208.242C365.716 208.242 382.521 203.031 394.503 194.281C406.488 185.53 413.649 173.234 413.649 159.09V151.649H345.407Z" stroke="url(#paint4_linear_513_3359)" stroke-width="0.5"/>
<path d="M65.5459 6.99414V110.193L65.9844 109.691L155.65 6.99414H232.629L120.313 129.604L120.151 129.782L120.321 129.951L241.926 250.45H158.718L65.9736 156.594L65.5459 156.16V250.45H0.25V6.99414H65.5459Z" stroke="url(#paint5_linear_513_3359)" stroke-width="0.5"/>
</g>
<defs>
<linearGradient id="paint0_linear_513_3359" x1="1317.03" y1="6.74414" x2="1317.03" y2="250.701" gradientUnits="userSpaceOnUse">
<stop stop-color="white"/>
<stop offset="1" stop-color="#0A0A0A"/>
</linearGradient>
<linearGradient id="paint1_linear_513_3359" x1="1075.48" y1="0.10376" x2="1075.48" y2="257.337" gradientUnits="userSpaceOnUse">
<stop stop-color="white"/>
<stop offset="1" stop-color="#0A0A0A"/>
</linearGradient>
<linearGradient id="paint2_linear_513_3359" x1="861.163" y1="6.74414" x2="861.163" y2="250.701" gradientUnits="userSpaceOnUse">
<stop stop-color="white"/>
<stop offset="1" stop-color="#0A0A0A"/>
</linearGradient>
<linearGradient id="paint3_linear_513_3359" x1="638.103" y1="0.10376" x2="638.103" y2="334.34" gradientUnits="userSpaceOnUse">
<stop stop-color="white"/>
<stop offset="1" stop-color="#0A0A0A"/>
</linearGradient>
<linearGradient id="paint4_linear_513_3359" x1="367.651" y1="0.10376" x2="367.651" y2="257.337" gradientUnits="userSpaceOnUse">
<stop stop-color="white"/>
<stop offset="1" stop-color="#0A0A0A"/>
</linearGradient>
<linearGradient id="paint5_linear_513_3359" x1="130.379" y1="6.74414" x2="130.379" y2="250.701" gradientUnits="userSpaceOnUse">
<stop stop-color="white"/>
<stop offset="1" stop-color="#0A0A0A"/>
</linearGradient>
</defs>
</svg>
