<svg width="508" height="366" viewBox="0 0 508 366" fill="none" xmlns="http://www.w3.org/2000/svg">
<g filter="url(#filter0_d_633_9401)">
<rect x="43" y="20.3726" width="444.181" height="689.502" rx="30.9749" fill="white"/>
<path d="M113.859 83.5745L105.721 92.3475L105.695 92.3774C104.438 93.7937 102.635 94.6044 100.741 94.6044L100.654 94.6044C97.2718 94.6044 94.5303 91.8628 94.5303 88.481L94.5303 83.5745L100.654 83.5745L100.654 90.7582L106.821 83.5745L113.859 83.5745Z" fill="#FF5500"/>
<path d="M97.9168 101.574L106.055 92.8005L106.081 92.7707C107.338 91.3543 109.141 90.5437 111.035 90.5437H111.122C114.504 90.5437 117.246 93.2852 117.246 96.667V101.574L111.122 101.574L111.122 94.3899L104.955 101.574H97.9168Z" fill="#00AA47"/>
<path d="M226.34 83.0779L220.721 91.7079L226.88 100.6H221.349L217.05 94.0522L212.87 100.6H207.641L213.53 91.7715L207.705 83.0779H213.236L217.209 89.4908L221.111 83.0779H226.34Z" fill="#0A0A0A"/>
<path d="M203.973 94.664H208.447C207.494 98.6532 204.299 101.077 200.04 101.077C194.755 101.077 191.187 97.342 191.187 91.8191C191.187 86.3121 194.716 82.6011 199.944 82.6011C205.126 82.6011 208.527 86.2406 208.527 91.7953C208.527 92.2165 208.511 92.6456 208.463 93.0906H195.78C196.09 95.713 197.696 97.2705 200.175 97.2705C202.026 97.2705 203.282 96.3964 203.973 94.664ZM195.836 90.1504H203.957C203.56 87.6472 202.193 86.3439 199.968 86.3439C197.688 86.3439 196.217 87.7266 195.836 90.1504Z" fill="#0A0A0A"/>
<path d="M183.493 92.5979V100.6H178.733V83.0779H183.493V89.165C184.129 85.4142 185.924 83.0779 189.349 83.0779H190.398V87.5598H188.555C184.653 87.5598 183.493 89.1491 183.493 92.5979Z" fill="#0A0A0A"/>
<path d="M164.092 83.0779V88.3862C164.871 84.7069 166.977 82.6011 169.996 82.6011C174.16 82.6011 177.069 86.3996 177.069 91.835C177.069 97.2705 174.152 101.077 169.996 101.077C166.977 101.077 164.871 98.9631 164.092 95.2839V106.608H159.332V83.0779H164.092ZM164.092 91.835C164.092 95.117 165.594 96.9765 168.224 96.9765C170.878 96.9765 172.277 95.2123 172.277 91.835C172.277 88.4577 170.878 86.7015 168.216 86.7015C165.594 86.7015 164.092 88.5531 164.092 91.835Z" fill="#0A0A0A"/>
<path d="M140.436 89.4987C140.436 85.2473 143.655 82.6011 148.86 82.6011C154.208 82.6011 157.371 85.4142 157.371 90.206V100.6H152.611V96.1182C151.824 99.1856 149.313 101.077 145.888 101.077C142.304 101.077 139.92 99.0108 139.92 95.9037C139.92 92.582 142.63 90.6113 147.199 90.6113H152.611V90.206C152.611 87.7982 151.188 86.3519 148.748 86.3519C146.293 86.3519 145.18 87.5518 145.18 89.4987H140.436ZM152.611 93.5038H147.692C145.721 93.5038 144.68 94.1793 144.68 95.4587C144.68 96.7858 145.792 97.5327 147.763 97.5327C150.552 97.5327 152.611 96.0388 152.611 94.0203V93.5038Z" fill="#0A0A0A"/>
<path d="M139.574 83.0779L131.42 91.9145L140.249 100.6H134.178L127.463 93.8535V100.6H122.703V83.0779H127.463V90.4603L133.955 83.0779H139.574Z" fill="#0A0A0A"/>
<rect x="353.083" y="75.9746" width="85.7774" height="37.2591" rx="18.6296" fill="#FF5500"/>
<path d="M378.482 99.104V89.1453H380.189V97.7667H384.628V99.104H378.482ZM389.257 99.2747C388.574 99.2747 387.957 99.1182 387.407 98.8052C386.867 98.4828 386.44 98.0417 386.127 97.4822C385.823 96.9131 385.672 96.2634 385.672 95.5331C385.672 94.7838 385.828 94.1294 386.141 93.5698C386.454 93.0007 386.881 92.5597 387.421 92.2467C387.971 91.9242 388.588 91.763 389.271 91.763C389.954 91.763 390.566 91.9242 391.106 92.2467C391.656 92.5597 392.083 92.996 392.387 93.5556C392.7 94.1152 392.856 94.7696 392.856 95.5189C392.856 96.2681 392.7 96.9226 392.387 97.4822C392.074 98.0417 391.642 98.4828 391.092 98.8052C390.551 99.1182 389.94 99.2747 389.257 99.2747ZM389.257 97.8094C389.598 97.8094 389.906 97.724 390.181 97.5533C390.466 97.3826 390.694 97.1265 390.864 96.785C391.035 96.4436 391.12 96.0215 391.12 95.5189C391.12 95.0162 391.035 94.5989 390.864 94.2669C390.703 93.9255 390.48 93.6694 390.196 93.4987C389.921 93.3279 389.612 93.2426 389.271 93.2426C388.939 93.2426 388.631 93.3279 388.346 93.4987C388.062 93.6694 387.834 93.9255 387.663 94.2669C387.493 94.5989 387.407 95.0162 387.407 95.5189C387.407 96.0215 387.493 96.4436 387.663 96.785C387.834 97.1265 388.057 97.3826 388.332 97.5533C388.616 97.724 388.925 97.8094 389.257 97.8094ZM397.126 102.405C396.453 102.405 395.86 102.319 395.348 102.149C394.845 101.987 394.452 101.736 394.167 101.395C393.892 101.063 393.755 100.645 393.755 100.143C393.755 99.8485 393.826 99.5593 393.968 99.2747C394.12 98.9997 394.343 98.7436 394.637 98.5065C394.94 98.2599 395.324 98.0465 395.789 97.8663L396.543 98.6914C396.088 98.8527 395.77 99.0471 395.59 99.2747C395.41 99.5024 395.32 99.7347 395.32 99.9718C395.32 100.218 395.396 100.422 395.547 100.584C395.709 100.754 395.922 100.882 396.188 100.968C396.463 101.053 396.771 101.096 397.112 101.096C397.444 101.096 397.733 101.048 397.98 100.953C398.227 100.868 398.416 100.745 398.549 100.584C398.691 100.422 398.763 100.228 398.763 100C398.763 99.7158 398.663 99.4834 398.464 99.3032C398.265 99.1325 397.871 99.0281 397.283 98.9902C396.78 98.9523 396.339 98.9001 395.96 98.8337C395.58 98.7578 395.253 98.6725 394.978 98.5776C394.713 98.4828 394.485 98.3784 394.295 98.2646C394.106 98.1413 393.949 98.018 393.826 97.8947V97.5675L395.32 96.0026L396.586 96.4152L394.907 98.0512L395.348 97.2261C395.443 97.2925 395.538 97.3541 395.633 97.411C395.737 97.4679 395.865 97.5201 396.017 97.5675C396.178 97.6055 396.387 97.6434 396.643 97.6813C396.899 97.7193 397.231 97.7572 397.639 97.7951C398.274 97.8426 398.791 97.9564 399.189 98.1366C399.588 98.3168 399.882 98.5586 400.071 98.8621C400.261 99.1657 400.356 99.5308 400.356 99.9576C400.356 100.375 400.237 100.769 400 101.138C399.773 101.508 399.422 101.812 398.947 102.049C398.473 102.286 397.866 102.405 397.126 102.405ZM397.126 96.9558C396.529 96.9558 396.012 96.842 395.576 96.6143C395.149 96.3772 394.822 96.0642 394.594 95.6754C394.366 95.277 394.253 94.8407 394.253 94.3665C394.253 93.8828 394.366 93.4465 394.594 93.0576C394.822 92.6688 395.149 92.3558 395.576 92.1187C396.012 91.8816 396.529 91.763 397.126 91.763C397.724 91.763 398.236 91.8816 398.663 92.1187C399.09 92.3558 399.417 92.6688 399.645 93.0576C399.872 93.4465 399.986 93.8828 399.986 94.3665C399.986 94.8407 399.872 95.277 399.645 95.6754C399.417 96.0642 399.09 96.3772 398.663 96.6143C398.236 96.842 397.724 96.9558 397.126 96.9558ZM397.126 95.6327C397.534 95.6327 397.862 95.5236 398.108 95.3055C398.355 95.0873 398.478 94.7743 398.478 94.3665C398.478 93.9587 398.355 93.6504 398.108 93.4418C397.862 93.2236 397.534 93.1145 397.126 93.1145C396.719 93.1145 396.387 93.2236 396.131 93.4418C395.875 93.6504 395.746 93.9587 395.746 94.3665C395.746 94.7743 395.875 95.0873 396.131 95.3055C396.387 95.5236 396.719 95.6327 397.126 95.6327ZM398.307 93.1857L397.98 91.9337H400.925V93.0007L398.307 93.1857ZM402.504 99.104V91.9337H404.211V99.104H402.504ZM403.357 90.7956C403.044 90.7956 402.783 90.7007 402.575 90.5111C402.376 90.3119 402.276 90.07 402.276 89.7855C402.276 89.4915 402.376 89.2544 402.575 89.0742C402.783 88.8845 403.044 88.7896 403.357 88.7896C403.67 88.7896 403.926 88.8845 404.125 89.0742C404.334 89.2544 404.438 89.4915 404.438 89.7855C404.438 90.07 404.334 90.3119 404.125 90.5111C403.926 90.7007 403.67 90.7956 403.357 90.7956ZM406.184 99.104V91.9337H407.692L407.82 93.1288C408.038 92.7115 408.351 92.3795 408.759 92.1329C409.167 91.8863 409.65 91.763 410.21 91.763C410.788 91.763 411.282 91.8863 411.689 92.1329C412.097 92.37 412.41 92.7209 412.628 93.1857C412.856 93.6504 412.97 94.229 412.97 94.9213V99.104H411.263V95.0778C411.263 94.4803 411.13 94.0203 410.864 93.6978C410.599 93.3754 410.205 93.2141 409.683 93.2141C409.342 93.2141 409.034 93.2948 408.759 93.456C408.493 93.6172 408.28 93.8543 408.119 94.1673C407.967 94.4708 407.891 94.8407 407.891 95.277V99.104H406.184Z" fill="white"/>
<path d="M90.7021 146.749C90.7021 139.907 96.2493 134.359 103.092 134.359H426.47C433.313 134.359 438.86 139.907 438.86 146.749V326.404C438.86 333.247 433.313 338.794 426.47 338.794H103.092C96.2494 338.794 90.7021 333.247 90.7021 326.404V146.749Z" fill="white"/>
<path d="M229.578 157.53V158.497H227.05L227.169 158.378V164.617H226.128V158.378L226.247 158.497H223.72V157.53H229.578ZM229.191 161.884C229.191 161.597 229.219 161.326 229.277 161.071C229.335 160.817 229.419 160.583 229.528 160.37C229.637 160.157 229.769 159.966 229.924 159.797C230.081 159.627 230.259 159.484 230.457 159.366C230.655 159.249 230.871 159.16 231.106 159.099C231.342 159.036 231.594 159.005 231.862 159.005C232.129 159.005 232.381 159.036 232.615 159.099C232.851 159.16 233.069 159.249 233.267 159.366C233.465 159.484 233.642 159.627 233.797 159.797C233.954 159.966 234.087 160.157 234.196 160.37C234.305 160.583 234.389 160.817 234.446 161.071C234.504 161.326 234.533 161.597 234.533 161.884C234.533 162.171 234.504 162.442 234.446 162.697C234.389 162.951 234.305 163.186 234.196 163.4C234.087 163.614 233.954 163.804 233.797 163.973C233.64 164.141 233.463 164.285 233.264 164.404C233.068 164.521 232.851 164.611 232.615 164.672C232.381 164.734 232.129 164.766 231.862 164.766C231.594 164.766 231.342 164.734 231.106 164.672C230.871 164.611 230.655 164.521 230.457 164.404C230.26 164.285 230.083 164.141 229.926 163.973C229.77 163.804 229.637 163.614 229.528 163.4C229.419 163.186 229.335 162.951 229.277 162.697C229.219 162.442 229.191 162.171 229.191 161.884ZM230.194 161.884C230.194 162.19 230.232 162.465 230.308 162.709C230.386 162.952 230.496 163.158 230.64 163.329C230.786 163.499 230.961 163.63 231.168 163.723C231.374 163.813 231.607 163.859 231.864 163.859C232.122 163.859 232.353 163.813 232.558 163.723C232.765 163.632 232.94 163.501 233.083 163.331C233.227 163.159 233.337 162.952 233.413 162.709C233.491 162.465 233.529 162.19 233.529 161.884C233.529 161.578 233.491 161.304 233.413 161.061C233.337 160.817 233.227 160.609 233.083 160.439C232.94 160.269 232.765 160.139 232.558 160.048C232.353 159.957 232.122 159.911 231.864 159.911C231.607 159.911 231.374 159.957 231.168 160.048C230.961 160.139 230.786 160.269 230.64 160.439C230.496 160.609 230.386 160.817 230.308 161.061C230.232 161.304 230.194 161.578 230.194 161.884ZM238.48 164.575C238.268 164.639 238.069 164.687 237.88 164.716C237.694 164.748 237.517 164.763 237.35 164.763C237.077 164.763 236.836 164.721 236.626 164.637C236.418 164.554 236.243 164.431 236.101 164.268C235.959 164.103 235.851 163.899 235.776 163.656C235.704 163.411 235.667 163.129 235.667 162.808V157.894H236.671V162.811C236.671 162.992 236.687 163.15 236.721 163.284C236.755 163.416 236.806 163.526 236.874 163.614C236.944 163.7 237.031 163.764 237.137 163.807C237.244 163.85 237.371 163.871 237.518 163.871C237.634 163.871 237.77 163.858 237.927 163.832C238.084 163.805 238.268 163.764 238.48 163.708V164.575ZM238.48 159.996H234.924V159.153H238.48V159.996ZM239.123 161.056C239.123 160.742 239.18 160.459 239.296 160.206C239.412 159.954 239.577 159.738 239.792 159.56C240.008 159.381 240.27 159.244 240.577 159.148C240.884 159.052 241.229 159.005 241.611 159.005C242.015 159.005 242.378 159.059 242.698 159.168C243.019 159.275 243.291 159.431 243.514 159.634C243.737 159.837 243.908 160.086 244.027 160.38C244.146 160.672 244.205 161.004 244.205 161.376V164.617H243.201V163.12H243.209C243.166 163.291 243.107 163.449 243.033 163.596C242.959 163.743 242.87 163.878 242.768 164C242.665 164.122 242.549 164.231 242.418 164.327C242.29 164.421 242.148 164.502 241.995 164.568C241.843 164.632 241.679 164.681 241.504 164.714C241.329 164.749 241.145 164.766 240.951 164.766C240.652 164.766 240.381 164.726 240.136 164.647C239.892 164.569 239.682 164.459 239.507 164.315C239.333 164.169 239.199 163.996 239.103 163.794C239.009 163.591 238.962 163.366 238.962 163.118C238.962 162.869 239.01 162.644 239.108 162.444C239.207 162.244 239.348 162.075 239.532 161.936C239.717 161.796 239.94 161.688 240.203 161.614C240.466 161.54 240.762 161.502 241.093 161.502H243.239V162.345H241.083C240.898 162.345 240.735 162.361 240.595 162.392C240.454 162.423 240.336 162.47 240.24 162.533C240.146 162.596 240.074 162.674 240.025 162.766C239.977 162.859 239.953 162.965 239.953 163.086C239.953 163.215 239.98 163.329 240.035 163.43C240.091 163.531 240.172 163.615 240.28 163.683C240.387 163.751 240.519 163.803 240.676 163.839C240.835 163.874 241.017 163.891 241.222 163.891C241.415 163.891 241.597 163.875 241.769 163.844C241.943 163.813 242.103 163.768 242.25 163.71C242.397 163.652 242.529 163.582 242.646 163.5C242.764 163.417 242.864 163.324 242.946 163.222C243.029 163.118 243.092 163.005 243.135 162.883C243.179 162.76 243.201 162.631 243.201 162.496V161.376C243.201 161.151 243.163 160.949 243.087 160.769C243.013 160.589 242.907 160.435 242.768 160.308C242.629 160.181 242.461 160.083 242.262 160.016C242.064 159.948 241.841 159.914 241.593 159.914C241.34 159.914 241.122 159.941 240.937 159.996C240.753 160.05 240.601 160.127 240.481 160.226C240.362 160.325 240.272 160.446 240.213 160.588C240.155 160.728 240.126 160.885 240.126 161.056H239.123ZM245.98 157.282V164.617H244.976V157.282H245.98ZM249.028 157.53H252.475C252.802 157.53 253.104 157.576 253.381 157.669C253.661 157.761 253.901 157.889 254.103 158.053C254.306 158.217 254.464 158.411 254.578 158.635C254.692 158.86 254.749 159.104 254.749 159.369C254.749 159.598 254.706 159.812 254.62 160.008C254.536 160.203 254.42 160.372 254.271 160.516C254.122 160.658 253.946 160.771 253.743 160.853C253.54 160.934 253.32 160.975 253.082 160.975V160.95C253.367 160.95 253.63 160.994 253.87 161.081C254.111 161.169 254.318 161.291 254.492 161.448C254.667 161.603 254.803 161.789 254.901 162.005C255 162.22 255.049 162.456 255.049 162.712C255.049 162.991 254.99 163.248 254.871 163.482C254.753 163.715 254.589 163.916 254.378 164.084C254.166 164.253 253.913 164.384 253.619 164.478C253.325 164.571 253.002 164.617 252.65 164.617H249.028V157.53ZM250.068 163.681L250.039 163.651H252.502C252.756 163.651 252.978 163.628 253.166 163.584C253.356 163.539 253.514 163.472 253.639 163.383C253.765 163.294 253.859 163.182 253.922 163.049C253.984 162.913 254.016 162.755 254.016 162.575C254.016 162.395 253.984 162.239 253.922 162.107C253.861 161.973 253.767 161.862 253.642 161.772C253.516 161.683 253.358 161.617 253.168 161.574C252.98 161.53 252.759 161.507 252.504 161.507H250.039L250.068 161.478V163.681ZM252.425 160.59C252.617 160.59 252.792 160.564 252.95 160.511C253.109 160.458 253.245 160.385 253.359 160.291C253.473 160.195 253.561 160.08 253.622 159.946C253.685 159.812 253.716 159.665 253.716 159.503C253.716 159.346 253.686 159.205 253.627 159.081C253.567 158.957 253.481 158.853 253.369 158.767C253.258 158.679 253.123 158.612 252.963 158.566C252.802 158.52 252.621 158.497 252.418 158.497H250.039L250.068 158.467V160.62L250.039 160.59H252.425ZM255.694 161.056C255.694 160.742 255.752 160.459 255.868 160.206C255.983 159.954 256.149 159.738 256.363 159.56C256.58 159.381 256.842 159.244 257.149 159.148C257.456 159.052 257.801 159.005 258.182 159.005C258.587 159.005 258.949 159.059 259.27 159.168C259.59 159.275 259.862 159.431 260.085 159.634C260.308 159.837 260.479 160.086 260.598 160.38C260.717 160.672 260.777 161.004 260.777 161.376V164.617H259.773V163.12H259.78C259.737 163.291 259.679 163.449 259.605 163.596C259.53 163.743 259.442 163.878 259.339 164C259.237 164.122 259.12 164.231 258.99 164.327C258.861 164.421 258.72 164.502 258.566 164.568C258.414 164.632 258.251 164.681 258.076 164.714C257.9 164.749 257.716 164.766 257.523 164.766C257.224 164.766 256.952 164.726 256.708 164.647C256.463 164.569 256.253 164.459 256.078 164.315C255.905 164.169 255.77 163.996 255.674 163.794C255.58 163.591 255.533 163.366 255.533 163.118C255.533 162.869 255.582 162.644 255.679 162.444C255.778 162.244 255.92 162.075 256.103 161.936C256.288 161.796 256.512 161.688 256.775 161.614C257.037 161.54 257.334 161.502 257.664 161.502H259.81V162.345H257.654C257.469 162.345 257.307 162.361 257.166 162.392C257.026 162.423 256.908 162.47 256.812 162.533C256.718 162.596 256.646 162.674 256.596 162.766C256.548 162.859 256.524 162.965 256.524 163.086C256.524 163.215 256.552 163.329 256.606 163.43C256.662 163.531 256.744 163.615 256.851 163.683C256.959 163.751 257.091 163.803 257.248 163.839C257.407 163.874 257.588 163.891 257.793 163.891C257.986 163.891 258.169 163.875 258.341 163.844C258.514 163.813 258.674 163.768 258.821 163.71C258.968 163.652 259.101 163.582 259.218 163.5C259.335 163.417 259.435 163.324 259.518 163.222C259.6 163.118 259.663 163.005 259.706 162.883C259.751 162.76 259.773 162.631 259.773 162.496V161.376C259.773 161.151 259.735 160.949 259.659 160.769C259.585 160.589 259.478 160.435 259.339 160.308C259.201 160.181 259.032 160.083 258.834 160.016C258.636 159.948 258.413 159.914 258.165 159.914C257.912 159.914 257.693 159.941 257.508 159.996C257.325 160.05 257.173 160.127 257.052 160.226C256.933 160.325 256.844 160.446 256.785 160.588C256.727 160.728 256.698 160.885 256.698 161.056H255.694ZM262.551 157.282V164.617H261.548V157.282H262.551ZM263.361 161.056C263.361 160.742 263.418 160.459 263.534 160.206C263.65 159.954 263.815 159.738 264.03 159.56C264.246 159.381 264.508 159.244 264.815 159.148C265.122 159.052 265.467 159.005 265.848 159.005C266.253 159.005 266.616 159.059 266.936 159.168C267.257 159.275 267.529 159.431 267.752 159.634C267.975 159.837 268.146 160.086 268.264 160.38C268.383 160.672 268.443 161.004 268.443 161.376V164.617H267.439V163.12H267.447C267.404 163.291 267.345 163.449 267.271 163.596C267.196 163.743 267.108 163.878 267.006 164C266.903 164.122 266.787 164.231 266.656 164.327C266.527 164.421 266.386 164.502 266.233 164.568C266.081 164.632 265.917 164.681 265.742 164.714C265.567 164.749 265.383 164.766 265.189 164.766C264.89 164.766 264.619 164.726 264.374 164.647C264.13 164.569 263.92 164.459 263.745 164.315C263.571 164.169 263.437 163.996 263.341 163.794C263.247 163.591 263.199 163.366 263.199 163.118C263.199 162.869 263.248 162.644 263.346 162.444C263.445 162.244 263.586 162.075 263.769 161.936C263.954 161.796 264.178 161.688 264.441 161.614C264.704 161.54 265 161.502 265.331 161.502H267.476V162.345H265.321C265.136 162.345 264.973 162.361 264.832 162.392C264.692 162.423 264.574 162.47 264.478 162.533C264.384 162.596 264.312 162.674 264.263 162.766C264.215 162.859 264.191 162.965 264.191 163.086C264.191 163.215 264.218 163.329 264.272 163.43C264.329 163.531 264.41 163.615 264.518 163.683C264.625 163.751 264.757 163.803 264.914 163.839C265.073 163.874 265.255 163.891 265.459 163.891C265.653 163.891 265.835 163.875 266.007 163.844C266.18 163.813 266.341 163.768 266.488 163.71C266.635 163.652 266.767 163.582 266.884 163.5C267.002 163.417 267.101 163.324 267.184 163.222C267.267 163.118 267.329 163.005 267.372 162.883C267.417 162.76 267.439 162.631 267.439 162.496V161.376C267.439 161.151 267.401 160.949 267.325 160.769C267.251 160.589 267.144 160.435 267.006 160.308C266.867 160.181 266.698 160.083 266.5 160.016C266.302 159.948 266.079 159.914 265.831 159.914C265.578 159.914 265.359 159.941 265.174 159.996C264.991 160.05 264.839 160.127 264.718 160.226C264.6 160.325 264.51 160.446 264.451 160.588C264.393 160.728 264.364 160.885 264.364 161.056H263.361ZM270.218 161.661V164.617H269.214V159.153H270.218V160.759L270.21 160.764C270.275 160.49 270.368 160.244 270.49 160.028C270.614 159.81 270.763 159.626 270.936 159.475C271.111 159.323 271.309 159.207 271.528 159.126C271.75 159.045 271.989 159.005 272.245 159.005C272.557 159.005 272.836 159.063 273.082 159.18C273.328 159.298 273.536 159.467 273.707 159.688C273.877 159.908 274.007 160.177 274.098 160.494C274.189 160.809 274.234 161.165 274.234 161.562V164.617H273.231V161.562C273.231 161.288 273.202 161.048 273.144 160.843C273.086 160.637 272.999 160.465 272.881 160.328C272.764 160.189 272.618 160.085 272.443 160.016C272.268 159.946 272.063 159.911 271.828 159.911C271.66 159.911 271.503 159.93 271.357 159.966C271.214 160.001 271.082 160.052 270.961 160.12C270.842 160.187 270.736 160.272 270.644 160.372C270.551 160.472 270.474 160.586 270.411 160.717C270.348 160.846 270.3 160.989 270.267 161.148C270.234 161.305 270.218 161.476 270.218 161.661ZM275.882 161.884C275.882 162.19 275.92 162.465 275.996 162.709C276.074 162.952 276.184 163.158 276.328 163.329C276.474 163.499 276.65 163.63 276.856 163.723C277.063 163.813 277.295 163.859 277.552 163.859C277.779 163.859 277.979 163.825 278.152 163.757C278.327 163.69 278.477 163.597 278.601 163.48C278.726 163.361 278.828 163.223 278.905 163.066C278.983 162.907 279.038 162.738 279.071 162.558H280.075C280.034 162.869 279.948 163.158 279.817 163.428C279.687 163.695 279.514 163.928 279.299 164.127C279.086 164.325 278.833 164.481 278.539 164.595C278.246 164.709 277.917 164.766 277.55 164.766C277.282 164.766 277.03 164.734 276.794 164.672C276.559 164.611 276.343 164.521 276.145 164.404C275.948 164.285 275.771 164.141 275.615 163.973C275.458 163.804 275.325 163.614 275.216 163.4C275.107 163.186 275.023 162.951 274.965 162.697C274.907 162.442 274.879 162.171 274.879 161.884C274.879 161.597 274.907 161.326 274.965 161.071C275.023 160.817 275.107 160.583 275.216 160.37C275.325 160.157 275.457 159.966 275.612 159.797C275.769 159.627 275.947 159.484 276.145 159.366C276.343 159.249 276.559 159.16 276.794 159.099C277.03 159.036 277.282 159.005 277.55 159.005C277.917 159.005 278.247 159.062 278.541 159.176C278.835 159.289 279.089 159.446 279.302 159.644C279.515 159.842 279.687 160.076 279.817 160.345C279.948 160.613 280.034 160.902 280.075 161.212H279.071C279.038 161.032 278.983 160.863 278.905 160.704C278.828 160.546 278.726 160.408 278.601 160.291C278.477 160.173 278.327 160.081 278.152 160.013C277.979 159.945 277.779 159.911 277.552 159.911C277.295 159.911 277.063 159.957 276.856 160.048C276.65 160.139 276.474 160.269 276.328 160.439C276.184 160.609 276.074 160.817 275.996 161.061C275.92 161.304 275.882 161.578 275.882 161.884ZM281.622 161.904C281.622 162.204 281.662 162.475 281.741 162.717C281.82 162.958 281.934 163.163 282.081 163.334C282.229 163.502 282.409 163.632 282.618 163.723C282.83 163.813 283.067 163.859 283.33 163.859C283.51 163.859 283.676 163.837 283.828 163.792C283.98 163.747 284.117 163.681 284.239 163.594C284.363 163.505 284.472 163.395 284.566 163.264C284.662 163.132 284.743 162.979 284.809 162.806H285.812C285.741 163.111 285.631 163.386 285.48 163.628C285.33 163.871 285.147 164.077 284.93 164.245C284.716 164.414 284.47 164.543 284.194 164.632C283.92 164.721 283.624 164.766 283.305 164.766C282.902 164.766 282.535 164.696 282.205 164.558C281.876 164.419 281.593 164.223 281.357 163.97C281.122 163.718 280.941 163.414 280.812 163.059C280.683 162.703 280.619 162.309 280.619 161.877C280.619 161.447 280.682 161.056 280.809 160.704C280.937 160.351 281.117 160.049 281.35 159.797C281.583 159.545 281.862 159.35 282.187 159.213C282.514 159.074 282.876 159.005 283.273 159.005C283.664 159.005 284.018 159.072 284.333 159.208C284.649 159.342 284.918 159.532 285.141 159.78C285.364 160.028 285.536 160.328 285.656 160.68C285.777 161.032 285.837 161.426 285.837 161.862C285.837 161.924 285.836 161.987 285.832 162.05C285.831 162.111 285.827 162.178 285.82 162.251H281.409V161.383H285.347L284.816 162.243C284.821 162.187 284.825 162.129 284.826 162.07C284.83 162.01 284.831 161.951 284.831 161.891C284.831 161.574 284.797 161.293 284.727 161.049C284.659 160.803 284.559 160.595 284.427 160.427C284.295 160.258 284.132 160.13 283.939 160.043C283.747 159.955 283.527 159.911 283.277 159.911C283.021 159.911 282.791 159.957 282.586 160.048C282.383 160.139 282.209 160.269 282.066 160.439C281.924 160.609 281.814 160.816 281.736 161.059C281.66 161.302 281.622 161.574 281.622 161.877V161.904Z" fill="#4D4A5C"/>
<g clip-path="url(#clip0_633_9401)">
<path d="M298.654 159.758L300.617 161.716V161.617C300.617 161.124 300.422 160.651 300.073 160.303C299.724 159.954 299.252 159.758 298.759 159.758H298.654ZM295.99 160.254L296.95 161.214C296.919 161.344 296.9 161.475 296.9 161.617C296.9 162.11 297.096 162.583 297.445 162.931C297.793 163.28 298.266 163.475 298.759 163.475C298.895 163.475 299.031 163.457 299.161 163.426L300.122 164.386C299.707 164.591 299.248 164.714 298.759 164.714C297.937 164.714 297.149 164.388 296.569 163.807C295.988 163.226 295.661 162.438 295.661 161.617C295.661 161.128 295.785 160.669 295.99 160.254ZM292.564 156.828L293.976 158.241L294.255 158.519C293.233 159.325 292.428 160.378 291.944 161.617C293.016 164.337 295.661 166.263 298.759 166.263C299.719 166.263 300.636 166.077 301.472 165.743L301.739 166.003L303.548 167.812L304.334 167.025L293.351 156.042M298.759 158.519C299.58 158.519 300.368 158.846 300.949 159.427C301.53 160.008 301.856 160.795 301.856 161.617C301.856 162.013 301.776 162.398 301.633 162.744L303.448 164.56C304.378 163.785 305.121 162.769 305.573 161.617C304.502 158.897 301.856 156.971 298.759 156.971C297.892 156.971 297.061 157.126 296.281 157.404L297.625 158.736C297.978 158.6 298.356 158.519 298.759 158.519Z" fill="#94A3B8"/>
</g>
<path d="M159.678 177.576V203.08L159.559 202.664H164.693V206.529H150.499V202.664H155.634L155.515 203.08V185.972L155.634 186.091H149.33V182.522H151.877C152.386 182.522 152.838 182.489 153.235 182.423C153.631 182.357 153.978 182.248 154.276 182.096C154.573 181.944 154.824 181.743 155.029 181.492C155.24 181.241 155.409 180.933 155.534 180.57C155.667 180.2 155.762 179.77 155.822 179.281C155.881 178.786 155.911 178.217 155.911 177.576H159.678ZM173.407 201.177L170.265 214.043H166.994L168.352 201.177H173.407ZM198.698 206.529H176.485V202.832C176.485 201.722 176.627 200.744 176.911 199.898C177.196 199.046 177.582 198.299 178.071 197.658C178.56 197.017 179.125 196.465 179.766 196.003C180.414 195.54 181.098 195.14 181.818 194.803C182.545 194.46 183.285 194.166 184.038 193.921C184.798 193.67 185.535 193.436 186.249 193.218L187.577 192.821C188.244 192.616 188.879 192.418 189.48 192.226C190.088 192.035 190.653 191.827 191.175 191.602C191.697 191.377 192.169 191.129 192.592 190.858C193.022 190.588 193.385 190.274 193.683 189.917C193.986 189.553 194.218 189.14 194.376 188.678C194.542 188.215 194.624 187.683 194.624 187.082C194.624 186.309 194.462 185.582 194.138 184.901C193.815 184.221 193.355 183.626 192.761 183.117C192.166 182.602 191.449 182.199 190.61 181.908C189.771 181.611 188.832 181.462 187.795 181.462C186.731 181.462 185.766 181.624 184.901 181.948C184.035 182.265 183.295 182.714 182.68 183.296C182.072 183.877 181.603 184.578 181.273 185.397C180.942 186.21 180.777 187.108 180.777 188.093V188.618H176.614V188.014C176.614 186.415 176.875 184.974 177.397 183.692C177.926 182.404 178.682 181.31 179.667 180.411C180.658 179.506 181.858 178.809 183.265 178.32C184.673 177.831 186.258 177.586 188.023 177.586C189.734 177.586 191.257 177.814 192.592 178.27C193.927 178.726 195.054 179.367 195.972 180.193C196.891 181.019 197.588 182.014 198.064 183.177C198.546 184.333 198.787 185.618 198.787 187.032C198.787 188.123 198.648 189.081 198.371 189.907C198.1 190.733 197.73 191.456 197.261 192.078C196.798 192.692 196.256 193.221 195.635 193.664C195.021 194.1 194.366 194.476 193.673 194.794C192.985 195.111 192.282 195.382 191.561 195.606C190.841 195.831 190.147 196.036 189.48 196.221L187.725 196.726C187.184 196.878 186.628 197.04 186.06 197.212C185.499 197.384 184.953 197.582 184.425 197.807C183.896 198.031 183.397 198.292 182.928 198.59C182.465 198.887 182.059 199.237 181.709 199.64C181.365 200.037 181.094 200.5 180.896 201.028C180.698 201.55 180.599 202.152 180.599 202.832V203.447L179.271 202.664H198.698V206.529ZM201.858 187.013V186.963C201.858 185.489 202.113 184.171 202.622 183.008C203.137 181.845 203.88 180.864 204.852 180.064C205.823 179.258 207.009 178.644 208.41 178.221C209.811 177.798 211.404 177.586 213.188 177.586C214.873 177.586 216.403 177.775 217.777 178.151C219.158 178.521 220.338 179.05 221.316 179.737C222.294 180.418 223.05 181.241 223.585 182.205C224.121 183.163 224.388 184.234 224.388 185.417C224.388 186.362 224.216 187.234 223.873 188.034C223.529 188.826 223.05 189.51 222.436 190.085C221.828 190.66 221.101 191.11 220.255 191.433C219.409 191.751 218.481 191.909 217.47 191.909V191.84C218.758 191.84 219.915 191.995 220.939 192.306C221.963 192.616 222.832 193.062 223.546 193.644C224.259 194.219 224.805 194.926 225.181 195.765C225.565 196.597 225.756 197.539 225.756 198.59C225.756 199.872 225.475 201.038 224.914 202.089C224.352 203.139 223.556 204.038 222.525 204.785C221.501 205.531 220.262 206.11 218.808 206.519C217.361 206.922 215.752 207.124 213.981 207.124C212.104 207.124 210.419 206.896 208.926 206.44C207.432 205.984 206.16 205.33 205.109 204.478C204.065 203.618 203.263 202.578 202.701 201.355C202.139 200.133 201.858 198.758 201.858 197.232V197.182H206.021V197.48C206.021 198.352 206.203 199.145 206.567 199.859C206.93 200.566 207.442 201.174 208.103 201.682C208.77 202.185 209.57 202.574 210.502 202.852C211.44 203.123 212.487 203.258 213.644 203.258C214.793 203.258 215.854 203.123 216.825 202.852C217.797 202.581 218.636 202.208 219.343 201.732C220.05 201.25 220.602 200.678 220.998 200.017C221.395 199.35 221.593 198.626 221.593 197.846C221.593 196.531 220.995 195.557 219.799 194.922C218.603 194.288 216.769 193.971 214.298 193.971H210.72V190.303H214.298C215.203 190.303 216.023 190.208 216.756 190.016C217.496 189.824 218.124 189.55 218.639 189.193C219.155 188.836 219.551 188.404 219.829 187.895C220.113 187.386 220.255 186.818 220.255 186.19C220.255 185.483 220.077 184.839 219.72 184.257C219.37 183.676 218.871 183.177 218.223 182.76C217.582 182.344 216.809 182.024 215.904 181.799C215.005 181.568 214.007 181.452 212.91 181.452C211.8 181.452 210.815 181.574 209.956 181.819C209.104 182.057 208.384 182.41 207.796 182.879C207.214 183.342 206.771 183.917 206.467 184.604C206.17 185.285 206.021 186.068 206.021 186.953V187.013H201.858ZM250.045 206.529H245.881V178.181H250.045V206.529ZM254.208 199.819H228.833V194.03L245.416 178.181H247.695V181.115L230.597 197.45L230.706 195.953H254.208V199.819ZM262.617 201.177V206.529H257.562V201.177H262.617ZM289.455 197.044C289.455 198.53 289.164 199.892 288.582 201.127C288.001 202.356 287.185 203.417 286.134 204.309C285.09 205.194 283.838 205.885 282.377 206.381C280.917 206.87 279.311 207.114 277.56 207.114C276.457 207.114 275.403 207.015 274.398 206.817C273.4 206.625 272.472 206.348 271.613 205.984C270.761 205.621 269.987 205.181 269.294 204.666C268.606 204.15 268.018 203.576 267.529 202.941C267.04 202.3 266.664 201.606 266.399 200.86C266.135 200.113 266.003 199.33 266.003 198.511V198.292H270.166V198.461C270.166 198.89 270.255 199.307 270.433 199.71C270.612 200.113 270.86 200.49 271.177 200.84C271.501 201.183 271.887 201.501 272.337 201.791C272.793 202.076 273.295 202.32 273.843 202.525C274.398 202.73 274.99 202.888 275.617 203.001C276.252 203.113 276.909 203.169 277.59 203.169C278.707 203.169 279.738 203.017 280.682 202.713C281.627 202.409 282.44 201.986 283.121 201.444C283.801 200.903 284.333 200.255 284.717 199.502C285.1 198.748 285.292 197.926 285.292 197.034C285.292 196.472 285.212 195.94 285.054 195.438C284.895 194.936 284.664 194.473 284.36 194.05C284.056 193.627 283.682 193.247 283.24 192.91C282.797 192.573 282.288 192.289 281.713 192.058C281.138 191.827 280.501 191.648 279.8 191.523C279.1 191.397 278.347 191.334 277.54 191.334C276.932 191.334 276.351 191.374 275.796 191.453C275.247 191.526 274.732 191.632 274.25 191.77C273.767 191.903 273.324 192.064 272.921 192.256C272.518 192.448 272.161 192.662 271.851 192.9C271.547 193.132 271.289 193.379 271.078 193.644C270.873 193.908 270.724 194.186 270.632 194.476H266.469V178.181H287.581V182.047H270.632V192.335L270.592 192.296C270.79 191.886 271.045 191.499 271.355 191.136C271.666 190.766 272.023 190.429 272.426 190.125C272.835 189.814 273.291 189.537 273.794 189.292C274.296 189.041 274.838 188.83 275.419 188.658C276.001 188.486 276.619 188.354 277.273 188.262C277.927 188.169 278.611 188.123 279.325 188.123C280.362 188.123 281.333 188.222 282.239 188.42C283.144 188.612 283.97 188.889 284.717 189.253C285.47 189.616 286.137 190.062 286.719 190.591C287.307 191.113 287.803 191.704 288.206 192.365C288.615 193.026 288.926 193.749 289.137 194.536C289.349 195.322 289.455 196.158 289.455 197.044ZM305.133 177.586C306.204 177.586 307.215 177.685 308.166 177.884C309.118 178.082 309.993 178.366 310.793 178.736C311.599 179.106 312.319 179.559 312.954 180.094C313.595 180.629 314.137 181.234 314.579 181.908C315.022 182.575 315.362 183.309 315.6 184.108C315.838 184.901 315.957 185.744 315.957 186.636V186.874H311.794V186.676C311.794 185.896 311.632 185.185 311.308 184.545C310.991 183.904 310.542 183.355 309.96 182.899C309.379 182.437 308.682 182.08 307.869 181.829C307.056 181.578 306.157 181.452 305.173 181.452C303.765 181.452 302.513 181.716 301.416 182.245C300.326 182.767 299.407 183.534 298.661 184.545C297.914 185.556 297.346 186.801 296.956 188.281C296.566 189.762 296.371 191.453 296.371 193.356V197.519H296.302C296.302 196.7 296.407 195.933 296.619 195.22C296.83 194.506 297.137 193.855 297.541 193.267C297.944 192.672 298.439 192.147 299.027 191.691C299.615 191.229 300.286 190.839 301.039 190.521C301.799 190.204 302.632 189.963 303.537 189.798C304.449 189.633 305.43 189.55 306.481 189.55C308.067 189.55 309.488 189.738 310.743 190.115C311.999 190.492 313.063 191.034 313.935 191.741C314.814 192.448 315.485 193.313 315.947 194.338C316.41 195.355 316.641 196.505 316.641 197.787C316.641 199.194 316.363 200.473 315.808 201.623C315.26 202.773 314.477 203.754 313.459 204.567C312.448 205.38 311.226 206.007 309.792 206.45C308.358 206.893 306.762 207.114 305.004 207.114C302.949 207.114 301.125 206.804 299.533 206.182C297.947 205.561 296.612 204.653 295.528 203.457C294.445 202.261 293.622 200.794 293.06 199.056C292.505 197.311 292.228 195.319 292.228 193.079V192.841C292.228 191.255 292.36 189.778 292.624 188.41C292.889 187.042 293.275 185.793 293.784 184.663C294.293 183.534 294.917 182.529 295.657 181.65C296.404 180.771 297.256 180.031 298.215 179.43C299.173 178.829 300.23 178.373 301.386 178.062C302.543 177.745 303.792 177.586 305.133 177.586ZM305.44 203.248C306.57 203.248 307.571 203.133 308.444 202.902C309.323 202.664 310.059 202.317 310.654 201.861C311.255 201.398 311.708 200.833 312.012 200.166C312.323 199.492 312.478 198.719 312.478 197.846C312.478 196.987 312.326 196.224 312.022 195.557C311.718 194.883 311.275 194.318 310.694 193.862C310.112 193.406 309.392 193.059 308.533 192.821C307.681 192.583 306.703 192.464 305.599 192.464C304.39 192.464 303.276 192.603 302.259 192.88C301.241 193.151 300.362 193.531 299.622 194.02C298.889 194.503 298.314 195.081 297.897 195.755C297.481 196.429 297.273 197.166 297.273 197.965C297.273 198.481 297.362 198.97 297.541 199.432C297.719 199.895 297.977 200.324 298.314 200.721C298.651 201.111 299.06 201.461 299.543 201.772C300.025 202.082 300.567 202.35 301.168 202.574C301.776 202.792 302.437 202.961 303.151 203.08C303.871 203.192 304.634 203.248 305.44 203.248Z" fill="#0A0A0A"/>
<path d="M324.343 194.582V186.355H326.425V194.582C326.425 195.038 326.464 195.463 326.544 195.856C326.623 196.246 326.739 196.601 326.891 196.921C327.046 197.239 327.236 197.521 327.46 197.769C327.688 198.013 327.948 198.22 328.239 198.388C328.533 198.554 328.86 198.679 329.22 198.765C329.58 198.851 329.97 198.894 330.389 198.894C330.809 198.894 331.199 198.851 331.559 198.765C331.919 198.679 332.245 198.554 332.535 198.388C332.829 198.22 333.089 198.013 333.313 197.769C333.541 197.521 333.731 197.239 333.883 196.921C334.039 196.601 334.156 196.246 334.235 195.856C334.315 195.463 334.354 195.038 334.354 194.582V186.355H336.436V194.582C336.436 195.216 336.371 195.811 336.242 196.366C336.114 196.921 335.927 197.43 335.682 197.893C335.441 198.355 335.144 198.768 334.79 199.132C334.44 199.495 334.04 199.802 333.591 200.054C333.145 200.305 332.653 200.496 332.114 200.628C331.579 200.761 331.004 200.827 330.389 200.827C329.775 200.827 329.198 200.761 328.66 200.628C328.125 200.496 327.632 200.305 327.183 200.054C326.737 199.802 326.337 199.495 325.984 199.132C325.633 198.768 325.336 198.355 325.091 197.893C324.85 197.43 324.665 196.921 324.536 196.366C324.408 195.811 324.343 195.216 324.343 194.582ZM343.648 186.058C344.494 186.058 345.26 186.164 345.948 186.375C346.635 186.586 347.221 186.889 347.707 187.282C348.196 187.675 348.573 188.154 348.837 188.719C349.101 189.284 349.233 189.92 349.233 190.627H347.201C347.201 190.218 347.114 189.847 346.939 189.517C346.767 189.183 346.524 188.901 346.21 188.67C345.896 188.435 345.52 188.255 345.08 188.129C344.644 188.004 344.162 187.941 343.633 187.941C343.336 187.941 343.04 187.963 342.746 188.006C342.455 188.045 342.174 188.108 341.903 188.194C341.636 188.276 341.386 188.382 341.155 188.511C340.924 188.64 340.724 188.792 340.555 188.967C340.387 189.142 340.253 189.342 340.154 189.567C340.058 189.788 340.01 190.034 340.01 190.305C340.01 190.543 340.048 190.751 340.124 190.93C340.204 191.105 340.316 191.257 340.461 191.385C340.607 191.514 340.785 191.625 340.997 191.718C341.211 191.81 341.454 191.891 341.725 191.96C341.999 192.026 342.298 192.088 342.622 192.144C342.949 192.2 343.301 192.256 343.678 192.312L344.411 192.421C344.811 192.481 345.221 192.549 345.64 192.624C346.06 192.697 346.466 192.795 346.859 192.917C347.256 193.036 347.629 193.188 347.98 193.373C348.33 193.555 348.635 193.784 348.896 194.062C349.161 194.339 349.369 194.675 349.521 195.068C349.673 195.458 349.749 195.92 349.749 196.455C349.749 197.192 349.602 197.835 349.308 198.383C349.017 198.929 348.609 199.383 348.084 199.746C347.562 200.106 346.937 200.376 346.21 200.554C345.487 200.736 344.69 200.827 343.821 200.827C342.87 200.827 342.017 200.723 341.264 200.514C340.511 200.303 339.872 199.997 339.346 199.598C338.824 199.194 338.424 198.702 338.147 198.121C337.869 197.536 337.731 196.872 337.731 196.128H339.762C339.762 196.568 339.857 196.963 340.045 197.313C340.233 197.66 340.501 197.955 340.848 198.2C341.198 198.441 341.621 198.626 342.117 198.755C342.615 198.881 343.174 198.943 343.792 198.943C344.324 198.943 344.826 198.894 345.298 198.795C345.774 198.696 346.19 198.544 346.547 198.339C346.904 198.131 347.187 197.868 347.395 197.551C347.606 197.234 347.712 196.855 347.712 196.416C347.712 196.155 347.672 195.928 347.593 195.737C347.517 195.545 347.406 195.38 347.261 195.241C347.116 195.099 346.94 194.98 346.736 194.884C346.531 194.789 346.299 194.708 346.042 194.642C345.784 194.572 345.503 194.513 345.199 194.463C344.899 194.41 344.581 194.357 344.248 194.305L343.326 194.166C342.919 194.106 342.505 194.04 342.082 193.968C341.662 193.895 341.254 193.802 340.858 193.69C340.461 193.574 340.088 193.431 339.738 193.259C339.391 193.084 339.087 192.866 338.826 192.605C338.565 192.34 338.358 192.025 338.206 191.658C338.054 191.291 337.978 190.855 337.978 190.35C337.978 189.877 338.046 189.443 338.182 189.046C338.32 188.65 338.514 188.293 338.761 187.976C339.009 187.659 339.307 187.381 339.653 187.143C340 186.902 340.384 186.702 340.803 186.543C341.223 186.382 341.672 186.261 342.151 186.182C342.634 186.099 343.133 186.058 343.648 186.058ZM351.04 200.529V186.355H355.703C356.433 186.355 357.119 186.431 357.76 186.583C358.404 186.735 358.996 186.956 359.534 187.247C360.073 187.535 360.555 187.887 360.981 188.303C361.411 188.716 361.773 189.185 362.067 189.71C362.364 190.236 362.59 190.812 362.746 191.44C362.904 192.064 362.984 192.732 362.984 193.442C362.984 194.153 362.904 194.822 362.746 195.449C362.59 196.074 362.364 196.649 362.067 197.174C361.773 197.699 361.411 198.17 360.981 198.587C360.555 199 360.073 199.351 359.534 199.642C358.996 199.93 358.404 200.149 357.76 200.301C357.119 200.453 356.433 200.529 355.703 200.529H351.04ZM353.072 198.953L352.715 198.596H355.703C356.245 198.596 356.749 198.544 357.215 198.438C357.681 198.332 358.105 198.179 358.489 197.977C358.875 197.772 359.217 197.521 359.514 197.224C359.815 196.926 360.068 196.588 360.273 196.208C360.478 195.824 360.633 195.401 360.739 194.939C360.848 194.476 360.902 193.977 360.902 193.442C360.902 192.907 360.848 192.408 360.739 191.946C360.633 191.483 360.478 191.062 360.273 190.682C360.068 190.298 359.815 189.958 359.514 189.661C359.217 189.363 358.875 189.114 358.489 188.912C358.105 188.708 357.681 188.552 357.215 188.447C356.749 188.341 356.245 188.288 355.703 188.288H352.715L353.072 187.931V198.953Z" fill="#ABAABA"/>
<path d="M378.954 193.671L375.237 197.388L371.52 193.671" stroke="black" stroke-width="0.619499"/>
<path d="M225.251 230.293V225.972H225.995V230.293H225.251ZM223.358 228.479V227.776H227.888V228.479H223.358ZM228.986 231.007V230.422C229.455 230.052 229.901 229.679 230.324 229.302C230.754 228.925 231.134 228.552 231.464 228.182C231.795 227.805 232.052 227.439 232.237 227.082C232.429 226.725 232.525 226.381 232.525 226.051C232.525 225.806 232.482 225.582 232.396 225.377C232.31 225.165 232.171 224.994 231.98 224.861C231.795 224.729 231.543 224.663 231.226 224.663C230.916 224.663 230.658 224.733 230.453 224.871C230.248 225.003 230.093 225.182 229.987 225.407C229.888 225.625 229.839 225.866 229.839 226.13H229.036C229.042 225.674 229.138 225.284 229.323 224.961C229.515 224.63 229.776 224.379 230.106 224.207C230.437 224.035 230.813 223.95 231.236 223.95C231.653 223.95 232.019 224.029 232.336 224.187C232.654 224.339 232.901 224.567 233.08 224.871C233.265 225.175 233.357 225.559 233.357 226.021C233.357 226.345 233.288 226.669 233.149 226.992C233.017 227.316 232.839 227.633 232.614 227.944C232.389 228.248 232.138 228.542 231.861 228.826C231.59 229.11 231.309 229.378 231.018 229.629C230.734 229.88 230.466 230.108 230.215 230.313H233.595V231.007H228.986ZM235.266 231.007L237.972 224.782H234.166V224.068H238.825V224.693L236.148 231.007H235.266ZM238.739 232.226L239.314 230.035H240.176L239.314 232.226H238.739ZM243.503 231.126C243.067 231.126 242.694 231.043 242.383 230.878C242.073 230.706 241.825 230.478 241.64 230.194C241.461 229.903 241.352 229.586 241.313 229.243H242.086C242.152 229.613 242.31 229.9 242.561 230.105C242.813 230.303 243.13 230.402 243.513 230.402C243.863 230.402 244.174 230.296 244.445 230.085C244.716 229.874 244.934 229.553 245.099 229.124C245.271 228.687 245.367 228.136 245.386 227.468C245.386 227.448 245.386 227.429 245.386 227.409C245.386 227.389 245.386 227.369 245.386 227.349C245.287 227.554 245.142 227.746 244.95 227.924C244.759 228.103 244.531 228.245 244.266 228.35C244.009 228.456 243.718 228.509 243.394 228.509C243.004 228.509 242.634 228.417 242.284 228.231C241.94 228.046 241.66 227.789 241.441 227.458C241.23 227.121 241.124 226.728 241.124 226.279C241.124 225.889 241.22 225.516 241.412 225.159C241.603 224.802 241.878 224.511 242.234 224.287C242.591 224.062 243.014 223.95 243.503 223.95C243.999 223.95 244.418 224.045 244.762 224.237C245.106 224.422 245.38 224.673 245.585 224.99C245.796 225.301 245.948 225.654 246.041 226.051C246.133 226.447 246.179 226.85 246.179 227.26C246.179 228.02 246.074 228.691 245.862 229.272C245.657 229.854 245.353 230.31 244.95 230.64C244.554 230.964 244.071 231.126 243.503 231.126ZM243.563 227.785C243.867 227.785 244.141 227.716 244.385 227.577C244.63 227.439 244.821 227.25 244.96 227.012C245.106 226.774 245.178 226.513 245.178 226.229C245.178 225.925 245.106 225.658 244.96 225.426C244.821 225.195 244.63 225.013 244.385 224.881C244.141 224.749 243.867 224.683 243.563 224.683C243.259 224.683 242.984 224.752 242.74 224.891C242.502 225.023 242.314 225.205 242.175 225.436C242.036 225.668 241.967 225.935 241.967 226.239C241.967 226.55 242.036 226.821 242.175 227.052C242.314 227.283 242.502 227.465 242.74 227.597C242.984 227.723 243.259 227.785 243.563 227.785ZM247.83 231.007L250.536 224.782H246.73V224.068H251.389V224.693L248.712 231.007H247.83ZM252.13 231.007V230.422C252.599 230.052 253.045 229.679 253.468 229.302C253.898 228.925 254.278 228.552 254.608 228.182C254.939 227.805 255.196 227.439 255.381 227.082C255.573 226.725 255.669 226.381 255.669 226.051C255.669 225.806 255.626 225.582 255.54 225.377C255.454 225.165 255.315 224.994 255.124 224.861C254.939 224.729 254.688 224.663 254.37 224.663C254.06 224.663 253.802 224.733 253.597 224.871C253.392 225.003 253.237 225.182 253.131 225.407C253.032 225.625 252.983 225.866 252.983 226.13H252.18C252.186 225.674 252.282 225.284 252.467 224.961C252.659 224.63 252.92 224.379 253.25 224.207C253.581 224.035 253.957 223.95 254.38 223.95C254.797 223.95 255.163 224.029 255.481 224.187C255.798 224.339 256.046 224.567 256.224 224.871C256.409 225.175 256.501 225.559 256.501 226.021C256.501 226.345 256.432 226.669 256.293 226.992C256.161 227.316 255.983 227.633 255.758 227.944C255.533 228.248 255.282 228.542 255.005 228.826C254.734 229.11 254.453 229.378 254.162 229.629C253.878 229.88 253.61 230.108 253.359 230.313H256.739V231.007H252.13ZM258.198 231.056C258.033 231.056 257.894 231.004 257.782 230.898C257.676 230.785 257.623 230.65 257.623 230.491C257.623 230.333 257.676 230.201 257.782 230.095C257.894 229.983 258.033 229.926 258.198 229.926C258.363 229.926 258.499 229.983 258.604 230.095C258.71 230.201 258.763 230.333 258.763 230.491C258.763 230.65 258.71 230.785 258.604 230.898C258.499 231.004 258.363 231.056 258.198 231.056ZM262.175 231.126C261.567 231.126 261.042 230.977 260.599 230.68C260.163 230.376 259.829 229.956 259.598 229.421C259.366 228.879 259.251 228.251 259.251 227.538C259.251 226.824 259.366 226.2 259.598 225.664C259.829 225.122 260.163 224.703 260.599 224.405C261.042 224.101 261.567 223.95 262.175 223.95C262.783 223.95 263.301 224.101 263.731 224.405C264.167 224.703 264.501 225.122 264.732 225.664C264.963 226.2 265.079 226.824 265.079 227.538C265.079 228.251 264.963 228.879 264.732 229.421C264.501 229.956 264.167 230.376 263.731 230.68C263.301 230.977 262.783 231.126 262.175 231.126ZM262.165 230.392C262.561 230.392 262.915 230.28 263.225 230.055C263.536 229.824 263.781 229.497 263.959 229.074C264.137 228.644 264.227 228.132 264.227 227.538C264.227 226.943 264.137 226.434 263.959 226.011C263.781 225.582 263.536 225.255 263.225 225.03C262.915 224.805 262.561 224.693 262.165 224.693C261.768 224.693 261.412 224.805 261.094 225.03C260.784 225.255 260.539 225.582 260.361 226.011C260.189 226.434 260.103 226.943 260.103 227.538C260.103 228.132 260.189 228.644 260.361 229.074C260.539 229.497 260.784 229.824 261.094 230.055C261.412 230.28 261.768 230.392 262.165 230.392ZM268.951 231.126C268.343 231.126 267.817 230.977 267.375 230.68C266.938 230.376 266.605 229.956 266.373 229.421C266.142 228.879 266.027 228.251 266.027 227.538C266.027 226.824 266.142 226.2 266.373 225.664C266.605 225.122 266.938 224.703 267.375 224.405C267.817 224.101 268.343 223.95 268.951 223.95C269.559 223.95 270.077 224.101 270.507 224.405C270.943 224.703 271.277 225.122 271.508 225.664C271.739 226.2 271.855 226.824 271.855 227.538C271.855 228.251 271.739 228.879 271.508 229.421C271.277 229.956 270.943 230.376 270.507 230.68C270.077 230.977 269.559 231.126 268.951 231.126ZM268.941 230.392C269.337 230.392 269.691 230.28 270.001 230.055C270.312 229.824 270.556 229.497 270.735 229.074C270.913 228.644 271.002 228.132 271.002 227.538C271.002 226.943 270.913 226.434 270.735 226.011C270.556 225.582 270.312 225.255 270.001 225.03C269.691 224.805 269.337 224.693 268.941 224.693C268.544 224.693 268.187 224.805 267.87 225.03C267.56 225.255 267.315 225.582 267.137 226.011C266.965 226.434 266.879 226.943 266.879 227.538C266.879 228.132 266.965 228.644 267.137 229.074C267.315 229.497 267.56 229.824 267.87 230.055C268.187 230.28 268.544 230.392 268.941 230.392ZM277.428 232.444C277.071 232.1 276.74 231.691 276.436 231.215C276.132 230.746 275.888 230.217 275.703 229.629C275.524 229.041 275.435 228.4 275.435 227.706C275.435 227.012 275.524 226.371 275.703 225.783C275.888 225.195 276.132 224.663 276.436 224.187C276.74 223.712 277.071 223.305 277.428 222.968H278.28V223.048C277.877 223.444 277.523 223.887 277.219 224.376C276.922 224.865 276.687 225.39 276.516 225.952C276.35 226.507 276.268 227.092 276.268 227.706C276.268 228.321 276.35 228.909 276.516 229.47C276.687 230.026 276.925 230.548 277.229 231.037C277.533 231.526 277.883 231.968 278.28 232.365V232.444H277.428ZM279.291 231.007V230.422C279.761 230.052 280.207 229.679 280.63 229.302C281.059 228.925 281.439 228.552 281.769 228.182C282.1 227.805 282.358 227.439 282.543 227.082C282.734 226.725 282.83 226.381 282.83 226.051C282.83 225.806 282.787 225.582 282.701 225.377C282.615 225.165 282.476 224.994 282.285 224.861C282.1 224.729 281.849 224.663 281.532 224.663C281.221 224.663 280.963 224.733 280.758 224.871C280.554 225.003 280.398 225.182 280.293 225.407C280.193 225.625 280.144 225.866 280.144 226.13H279.341C279.348 225.674 279.443 225.284 279.628 224.961C279.82 224.63 280.081 224.379 280.411 224.207C280.742 224.035 281.119 223.95 281.541 223.95C281.958 223.95 282.324 224.029 282.642 224.187C282.959 224.339 283.207 224.567 283.385 224.871C283.57 225.175 283.663 225.559 283.663 226.021C283.663 226.345 283.593 226.669 283.454 226.992C283.322 227.316 283.144 227.633 282.919 227.944C282.695 228.248 282.443 228.542 282.166 228.826C281.895 229.11 281.614 229.378 281.323 229.629C281.039 229.88 280.772 230.108 280.521 230.313H283.9V231.007H279.291ZM285.359 231.056C285.194 231.056 285.055 231.004 284.943 230.898C284.837 230.785 284.784 230.65 284.784 230.491C284.784 230.333 284.837 230.201 284.943 230.095C285.055 229.983 285.194 229.926 285.359 229.926C285.524 229.926 285.66 229.983 285.766 230.095C285.871 230.201 285.924 230.333 285.924 230.491C285.924 230.65 285.871 230.785 285.766 230.898C285.66 231.004 285.524 231.056 285.359 231.056ZM287.607 231.007V225L286.418 225.298V224.703L287.885 224.068H288.45V231.007H287.607ZM293.074 231.007V229.52H289.555V228.876L292.925 224.068H293.897V228.787H294.928V229.52H293.897V231.007H293.074ZM290.477 228.787H293.114V224.99L290.477 228.787ZM296.608 231.007L300.642 224.068H301.475L297.44 231.007H296.608ZM300.979 231.126C300.682 231.126 300.414 231.06 300.176 230.928C299.938 230.789 299.747 230.594 299.601 230.343C299.462 230.092 299.393 229.798 299.393 229.461C299.393 229.117 299.462 228.823 299.601 228.578C299.747 228.327 299.938 228.136 300.176 228.004C300.414 227.865 300.682 227.795 300.979 227.795C301.283 227.795 301.551 227.865 301.782 228.004C302.02 228.136 302.208 228.327 302.347 228.578C302.486 228.823 302.555 229.117 302.555 229.461C302.555 229.798 302.486 230.092 302.347 230.343C302.208 230.594 302.02 230.789 301.782 230.928C301.544 231.06 301.276 231.126 300.979 231.126ZM300.969 230.482C301.128 230.482 301.273 230.445 301.405 230.372C301.537 230.293 301.643 230.178 301.722 230.026C301.808 229.874 301.851 229.685 301.851 229.461C301.851 229.229 301.812 229.038 301.732 228.886C301.653 228.734 301.547 228.621 301.415 228.549C301.283 228.469 301.138 228.43 300.979 228.43C300.827 228.43 300.682 228.469 300.543 228.549C300.411 228.621 300.302 228.734 300.216 228.886C300.136 229.038 300.097 229.229 300.097 229.461C300.097 229.685 300.136 229.874 300.216 230.026C300.302 230.178 300.411 230.293 300.543 230.372C300.675 230.445 300.817 230.482 300.969 230.482ZM297.163 227.29C296.866 227.29 296.598 227.224 296.36 227.092C296.122 226.953 295.93 226.758 295.785 226.507C295.646 226.256 295.577 225.962 295.577 225.625C295.577 225.281 295.646 224.987 295.785 224.742C295.93 224.491 296.122 224.3 296.36 224.168C296.604 224.029 296.875 223.959 297.173 223.959C297.47 223.959 297.738 224.029 297.976 224.168C298.214 224.3 298.402 224.491 298.541 224.742C298.679 224.987 298.749 225.281 298.749 225.625C298.749 225.962 298.679 226.256 298.541 226.507C298.402 226.758 298.21 226.953 297.966 227.092C297.728 227.224 297.46 227.29 297.163 227.29ZM297.163 226.646C297.321 226.646 297.467 226.609 297.599 226.537C297.731 226.457 297.837 226.342 297.916 226.19C297.995 226.038 298.035 225.849 298.035 225.625C298.035 225.393 297.995 225.202 297.916 225.05C297.837 224.891 297.731 224.776 297.599 224.703C297.467 224.624 297.325 224.584 297.173 224.584C297.021 224.584 296.875 224.624 296.737 224.703C296.598 224.776 296.486 224.891 296.4 225.05C296.32 225.202 296.281 225.393 296.281 225.625C296.281 225.849 296.32 226.038 296.4 226.19C296.486 226.342 296.595 226.457 296.727 226.537C296.866 226.609 297.011 226.646 297.163 226.646ZM304.192 232.444H303.339V232.365C303.742 231.968 304.093 231.526 304.39 231.037C304.694 230.548 304.929 230.026 305.094 229.47C305.266 228.909 305.351 228.321 305.351 227.706C305.351 227.092 305.266 226.507 305.094 225.952C304.929 225.39 304.694 224.865 304.39 224.376C304.093 223.887 303.742 223.444 303.339 223.048V222.968H304.192C304.555 223.305 304.886 223.712 305.183 224.187C305.487 224.663 305.728 225.195 305.907 225.783C306.092 226.371 306.184 227.012 306.184 227.706C306.184 228.4 306.092 229.041 305.907 229.629C305.728 230.217 305.487 230.746 305.183 231.215C304.886 231.691 304.555 232.1 304.192 232.444Z" fill="#00AA47"/>
<g clip-path="url(#clip1_633_9401)">
<rect x="135.926" y="253.831" width="37.1699" height="37.1699" rx="18.585" fill="#FF5500"/>
<path d="M148.935 272.416H160.086" stroke="white" stroke-width="1.8585" stroke-linecap="round" stroke-linejoin="round"/>
<path d="M154.511 266.841V277.992" stroke="white" stroke-width="1.8585" stroke-linecap="round" stroke-linejoin="round"/>
</g>
<path d="M143.858 311.913V304.975H148.18V305.787H144.849V308.038H147.635V308.83H144.849V311.913H143.858ZM150.905 312.032C150.515 312.032 150.178 311.959 149.894 311.814C149.61 311.662 149.388 311.434 149.23 311.13C149.071 310.826 148.992 310.446 148.992 309.99V306.739H149.983V309.881C149.983 310.317 150.089 310.644 150.3 310.862C150.512 311.08 150.802 311.19 151.172 311.19C151.423 311.19 151.648 311.133 151.846 311.021C152.045 310.909 152.203 310.743 152.322 310.525C152.441 310.301 152.501 310.027 152.501 309.703V306.739H153.492V311.913H152.61L152.54 311.09C152.401 311.388 152.19 311.619 151.906 311.784C151.622 311.949 151.288 312.032 150.905 312.032ZM154.679 311.913V306.739H155.562L155.621 307.552C155.773 307.261 155.991 307.033 156.275 306.868C156.559 306.703 156.893 306.62 157.276 306.62C157.666 306.62 158.003 306.696 158.287 306.848C158.571 307 158.79 307.228 158.942 307.532C159.1 307.836 159.179 308.216 159.179 308.672V311.913H158.198V308.771C158.198 308.341 158.092 308.018 157.881 307.8C157.669 307.575 157.379 307.463 157.009 307.463C156.764 307.463 156.54 307.522 156.335 307.641C156.13 307.753 155.968 307.922 155.849 308.147C155.73 308.365 155.671 308.632 155.671 308.949V311.913H154.679ZM162.498 312.032C162.035 312.032 161.626 311.916 161.269 311.685C160.919 311.447 160.644 311.127 160.446 310.724C160.248 310.314 160.149 309.851 160.149 309.336C160.149 308.807 160.248 308.341 160.446 307.938C160.651 307.529 160.932 307.208 161.289 306.977C161.652 306.739 162.068 306.62 162.538 306.62C162.927 306.62 163.264 306.696 163.549 306.848C163.833 307 164.057 307.218 164.223 307.502V304.776H165.214V311.913H164.322L164.233 311.13C164.133 311.289 164.005 311.437 163.846 311.576C163.687 311.708 163.496 311.817 163.271 311.903C163.053 311.989 162.795 312.032 162.498 312.032ZM162.686 311.17C162.997 311.17 163.264 311.097 163.489 310.952C163.72 310.8 163.899 310.585 164.024 310.307C164.15 310.03 164.213 309.703 164.213 309.326C164.213 308.949 164.15 308.622 164.024 308.345C163.899 308.067 163.72 307.856 163.489 307.71C163.264 307.558 162.997 307.482 162.686 307.482C162.395 307.482 162.134 307.558 161.903 307.71C161.672 307.856 161.49 308.067 161.358 308.345C161.226 308.622 161.16 308.949 161.16 309.326C161.16 309.703 161.226 310.03 161.358 310.307C161.49 310.585 161.672 310.8 161.903 310.952C162.134 311.097 162.395 311.17 162.686 311.17Z" fill="#201E2D"/>
<g clip-path="url(#clip2_633_9401)">
<path d="M202.832 272.416C202.832 262.152 211.153 253.831 221.417 253.831C231.681 253.831 240.002 262.152 240.002 272.416C240.002 282.68 231.681 291.001 221.417 291.001C211.153 291.001 202.832 282.68 202.832 272.416Z" fill="#FF5500"/>
<path d="M215.841 272.416H226.992" stroke="white" stroke-width="1.8585" stroke-linecap="round" stroke-linejoin="round"/>
</g>
<path d="M213.981 311.913V304.975H216.33C216.885 304.975 217.344 305.071 217.708 305.262C218.071 305.447 218.339 305.698 218.51 306.015C218.682 306.333 218.768 306.693 218.768 307.096C218.768 307.486 218.682 307.843 218.51 308.166C218.339 308.484 218.074 308.738 217.718 308.93C217.361 309.121 216.898 309.217 216.33 309.217H214.972V311.913H213.981ZM214.972 308.394H216.29C216.825 308.394 217.202 308.275 217.42 308.038C217.645 307.8 217.757 307.486 217.757 307.096C217.757 306.686 217.645 306.369 217.42 306.144C217.202 305.913 216.825 305.797 216.29 305.797H214.972V308.394ZM221.002 312.032C220.605 312.032 220.272 311.959 220.001 311.814C219.737 311.669 219.538 311.474 219.406 311.229C219.281 310.985 219.218 310.72 219.218 310.436C219.218 310.106 219.3 309.822 219.466 309.584C219.637 309.346 219.882 309.164 220.199 309.039C220.516 308.906 220.893 308.84 221.329 308.84H222.598C222.598 308.53 222.561 308.272 222.489 308.067C222.416 307.856 222.297 307.7 222.132 307.601C221.967 307.496 221.745 307.443 221.468 307.443C221.184 307.443 220.942 307.512 220.744 307.651C220.553 307.783 220.43 307.981 220.377 308.246H219.386C219.426 307.902 219.542 307.611 219.733 307.373C219.925 307.129 220.173 306.944 220.477 306.818C220.781 306.686 221.111 306.62 221.468 306.62C221.944 306.62 222.337 306.703 222.647 306.868C222.965 307.033 223.199 307.268 223.351 307.572C223.51 307.869 223.589 308.226 223.589 308.642V311.913H222.727L222.647 311.061C222.581 311.199 222.495 311.328 222.39 311.447C222.29 311.56 222.172 311.662 222.033 311.754C221.901 311.84 221.749 311.906 221.577 311.953C221.405 312.006 221.213 312.032 221.002 312.032ZM221.19 311.229C221.389 311.229 221.57 311.186 221.735 311.1C221.907 311.008 222.056 310.886 222.181 310.734C222.307 310.582 222.403 310.41 222.469 310.218C222.542 310.027 222.581 309.825 222.588 309.614V309.544H221.418C221.147 309.544 220.923 309.58 220.744 309.653C220.572 309.719 220.447 309.818 220.368 309.951C220.295 310.076 220.259 310.218 220.259 310.377C220.259 310.549 220.295 310.701 220.368 310.833C220.44 310.958 220.546 311.057 220.685 311.13C220.824 311.196 220.992 311.229 221.19 311.229ZM225.213 314.094L226.392 311.358H226.105L224.142 306.739H225.213L226.769 310.525L228.325 306.739H229.366L226.254 314.094H225.213Z" fill="#201E2D"/>
<g clip-path="url(#clip3_633_9401)">
<rect x="279.649" y="253.831" width="37.1699" height="37.1699" rx="18.585" fill="#0A0A0A"/>
<path d="M295.41 277.811C296.071 277.811 296.607 278.347 296.607 279.009C296.607 279.67 296.071 280.206 295.41 280.206C294.749 280.206 294.212 279.67 294.212 279.009C294.212 278.347 294.749 277.811 295.41 277.811Z" fill="white" stroke="white" stroke-width="0.116156"/>
<path d="M303.573 277.811C304.235 277.811 304.771 278.347 304.771 279.009C304.77 279.67 304.235 280.206 303.573 280.206C302.912 280.206 302.375 279.67 302.375 279.009C302.375 278.347 302.912 277.811 303.573 277.811Z" fill="white" stroke="white" stroke-width="0.116156"/>
<path d="M289.76 264.569H291.643L294.527 274.951C294.601 275.215 294.759 275.448 294.977 275.614C295.196 275.78 295.462 275.87 295.737 275.87H303.494C303.768 275.87 304.035 275.78 304.254 275.614C304.472 275.448 304.63 275.215 304.704 274.951L306.711 267.709H292.515" stroke="white" stroke-width="1.8585" stroke-linecap="round" stroke-linejoin="round"/>
</g>
<path d="M272.978 311.913V304.975H275.545C276.034 304.975 276.44 305.054 276.764 305.213C277.088 305.365 277.329 305.576 277.488 305.847C277.653 306.111 277.736 306.412 277.736 306.749C277.736 307.099 277.656 307.393 277.498 307.631C277.346 307.869 277.144 308.054 276.893 308.186C276.649 308.312 276.384 308.384 276.1 308.404L276.249 308.305C276.553 308.312 276.83 308.394 277.081 308.553C277.332 308.705 277.531 308.91 277.676 309.167C277.821 309.425 277.894 309.709 277.894 310.02C277.894 310.377 277.805 310.701 277.626 310.991C277.455 311.275 277.2 311.5 276.863 311.665C276.533 311.83 276.123 311.913 275.634 311.913H272.978ZM273.969 311.09H275.505C275.941 311.09 276.278 310.991 276.516 310.793C276.761 310.588 276.883 310.301 276.883 309.931C276.883 309.567 276.758 309.276 276.506 309.058C276.262 308.84 275.922 308.731 275.486 308.731H273.969V311.09ZM273.969 307.968H275.436C275.859 307.968 276.179 307.872 276.397 307.681C276.615 307.482 276.725 307.212 276.725 306.868C276.725 306.537 276.615 306.276 276.397 306.085C276.179 305.887 275.852 305.787 275.416 305.787H273.969V307.968ZM280.74 312.032C280.351 312.032 280.014 311.959 279.729 311.814C279.445 311.662 279.224 311.434 279.065 311.13C278.907 310.826 278.827 310.446 278.827 309.99V306.739H279.819V309.881C279.819 310.317 279.924 310.644 280.136 310.862C280.347 311.08 280.638 311.19 281.008 311.19C281.259 311.19 281.484 311.133 281.682 311.021C281.88 310.909 282.039 310.743 282.158 310.525C282.277 310.301 282.336 310.027 282.336 309.703V306.739H283.328V311.913H282.445L282.376 311.09C282.237 311.388 282.026 311.619 281.742 311.784C281.457 311.949 281.124 312.032 280.74 312.032ZM285.12 314.094L286.299 311.358H286.012L284.049 306.739H285.12L286.676 310.525L288.232 306.739H289.273L286.161 314.094H285.12ZM295.389 312.032C294.728 312.032 294.153 311.883 293.664 311.586C293.182 311.282 292.808 310.862 292.544 310.327C292.28 309.785 292.148 309.158 292.148 308.444C292.148 307.737 292.28 307.112 292.544 306.571C292.808 306.029 293.182 305.609 293.664 305.312C294.153 305.008 294.728 304.856 295.389 304.856C296.188 304.856 296.839 305.051 297.342 305.441C297.844 305.83 298.164 306.379 298.303 307.086H297.233C297.127 306.676 296.919 306.349 296.608 306.105C296.304 305.86 295.898 305.738 295.389 305.738C294.933 305.738 294.536 305.847 294.199 306.065C293.869 306.283 293.615 306.594 293.436 306.997C293.258 307.4 293.169 307.882 293.169 308.444C293.169 309.006 293.258 309.491 293.436 309.901C293.615 310.304 293.869 310.615 294.199 310.833C294.536 311.044 294.933 311.15 295.389 311.15C295.898 311.15 296.304 311.034 296.608 310.803C296.919 310.565 297.127 310.245 297.233 309.841H298.303C298.164 310.529 297.844 311.067 297.342 311.457C296.839 311.84 296.188 312.032 295.389 312.032ZM299.282 311.913V306.739H300.174L300.253 307.681C300.372 307.449 300.528 307.254 300.719 307.096C300.911 306.937 301.139 306.818 301.403 306.739C301.668 306.66 301.965 306.62 302.295 306.62V307.661H301.76C301.562 307.661 301.374 307.687 301.195 307.74C301.017 307.786 300.858 307.869 300.719 307.988C300.581 308.1 300.472 308.256 300.392 308.454C300.313 308.645 300.273 308.887 300.273 309.177V311.913H299.282ZM303.647 314.094L304.827 311.358H304.54L302.577 306.739H303.647L305.204 310.525L306.76 306.739H307.801L304.688 314.094H303.647ZM308.527 314.094V306.739H309.419L309.508 307.512C309.614 307.347 309.746 307.198 309.904 307.066C310.063 306.934 310.251 306.828 310.469 306.749C310.687 306.663 310.942 306.62 311.233 306.62C311.702 306.62 312.111 306.739 312.462 306.977C312.818 307.215 313.096 307.539 313.294 307.948C313.492 308.351 313.592 308.814 313.592 309.336C313.592 309.851 313.489 310.314 313.284 310.724C313.086 311.133 312.809 311.454 312.452 311.685C312.101 311.916 311.695 312.032 311.233 312.032C310.836 312.032 310.492 311.956 310.202 311.804C309.911 311.645 309.683 311.427 309.518 311.15V314.094H308.527ZM311.054 311.17C311.351 311.17 311.612 311.097 311.837 310.952C312.068 310.8 312.25 310.585 312.382 310.307C312.514 310.03 312.581 309.703 312.581 309.326C312.581 308.949 312.514 308.626 312.382 308.355C312.25 308.077 312.068 307.862 311.837 307.71C311.612 307.558 311.351 307.482 311.054 307.482C310.75 307.482 310.483 307.558 310.251 307.71C310.02 307.862 309.842 308.077 309.716 308.355C309.59 308.626 309.528 308.949 309.528 309.326C309.528 309.703 309.59 310.03 309.716 310.307C309.842 310.585 310.02 310.8 310.251 310.952C310.483 311.097 310.75 311.17 311.054 311.17ZM316.499 311.913C316.188 311.913 315.917 311.864 315.686 311.764C315.455 311.665 315.276 311.5 315.151 311.269C315.025 311.038 314.962 310.724 314.962 310.327V307.572H314.06V306.739H314.962L315.081 305.411H315.954V306.739H317.381V307.572H315.954V310.337C315.954 310.621 316.01 310.816 316.122 310.922C316.241 311.021 316.449 311.071 316.747 311.071H317.371V311.913H316.499ZM320.477 312.032C319.994 312.032 319.565 311.92 319.188 311.695C318.818 311.47 318.527 311.156 318.316 310.753C318.104 310.344 317.999 309.868 317.999 309.326C317.999 308.778 318.104 308.302 318.316 307.899C318.527 307.496 318.821 307.182 319.198 306.957C319.575 306.732 320.004 306.62 320.487 306.62C320.976 306.62 321.405 306.732 321.775 306.957C322.152 307.182 322.443 307.496 322.647 307.899C322.859 308.302 322.965 308.778 322.965 309.326C322.965 309.868 322.859 310.344 322.647 310.753C322.436 311.156 322.142 311.47 321.765 311.695C321.395 311.92 320.966 312.032 320.477 312.032ZM320.477 311.18C320.754 311.18 321.002 311.11 321.22 310.971C321.445 310.833 321.623 310.628 321.755 310.357C321.887 310.079 321.954 309.736 321.954 309.326C321.954 308.916 321.887 308.576 321.755 308.305C321.63 308.028 321.458 307.819 321.24 307.681C321.022 307.542 320.771 307.473 320.487 307.473C320.216 307.473 319.968 307.542 319.743 307.681C319.519 307.819 319.34 308.028 319.208 308.305C319.082 308.576 319.02 308.916 319.02 309.326C319.02 309.736 319.082 310.079 319.208 310.357C319.34 310.628 319.515 310.833 319.733 310.971C319.951 311.11 320.199 311.18 320.477 311.18Z" fill="#201E2D"/>
<g clip-path="url(#clip4_633_9401)">
<path d="M356.468 272.416C356.468 262.152 364.789 253.831 375.053 253.831C385.317 253.831 393.638 262.152 393.638 272.416C393.638 282.68 385.317 291.001 375.053 291.001C364.789 291.001 356.468 282.68 356.468 272.416Z" fill="#0A0A0A"/>
<g clip-path="url(#clip5_633_9401)">
<path d="M368.211 272.943C368.092 272.823 368.024 272.661 368.024 272.492V265.09H375.426C375.596 265.09 375.758 265.157 375.878 265.277L383.809 273.208C383.929 273.328 383.996 273.49 383.996 273.66C383.996 273.829 383.929 273.992 383.809 274.111L377.048 280.874C376.928 280.994 376.766 281.061 376.597 281.061C376.427 281.061 376.265 280.994 376.145 280.874L368.211 272.943Z" stroke="white" stroke-width="1.8585" stroke-linecap="round" stroke-linejoin="round"/>
<path d="M371.538 269.562C372.068 269.562 372.497 269.133 372.497 268.604C372.497 268.075 372.068 267.646 371.538 267.646C371.009 267.646 370.58 268.075 370.58 268.604C370.58 269.133 371.009 269.562 371.538 269.562Z" fill="white"/>
</g>
</g>
<path d="M353.213 312.032C352.704 312.032 352.258 311.943 351.874 311.764C351.491 311.579 351.194 311.322 350.982 310.991C350.771 310.661 350.665 310.274 350.665 309.832H351.706C351.712 310.083 351.772 310.314 351.884 310.525C352.003 310.73 352.172 310.895 352.39 311.021C352.614 311.14 352.889 311.199 353.213 311.199C353.49 311.199 353.728 311.153 353.926 311.061C354.131 310.968 354.286 310.843 354.392 310.684C354.498 310.519 354.551 310.33 354.551 310.119C354.551 309.894 354.498 309.703 354.392 309.544C354.286 309.386 354.141 309.253 353.956 309.148C353.777 309.042 353.566 308.949 353.322 308.87C353.084 308.784 352.829 308.698 352.558 308.612C351.977 308.427 351.551 308.193 351.28 307.909C351.009 307.618 350.873 307.245 350.873 306.789C350.873 306.399 350.966 306.062 351.151 305.778C351.336 305.487 351.594 305.262 351.924 305.104C352.261 304.938 352.657 304.856 353.113 304.856C353.563 304.856 353.956 304.938 354.293 305.104C354.63 305.269 354.894 305.497 355.086 305.787C355.278 306.078 355.373 306.419 355.373 306.808H354.323C354.323 306.63 354.276 306.455 354.184 306.283C354.091 306.111 353.953 305.973 353.768 305.867C353.583 305.754 353.355 305.698 353.084 305.698C352.859 305.692 352.657 305.728 352.479 305.807C352.301 305.887 352.162 306.002 352.063 306.154C351.964 306.306 351.914 306.488 351.914 306.699C351.914 306.911 351.957 307.083 352.043 307.215C352.135 307.34 352.268 307.449 352.439 307.542C352.611 307.634 352.809 307.72 353.034 307.8C353.265 307.872 353.52 307.955 353.797 308.047C354.141 308.16 354.445 308.299 354.709 308.464C354.98 308.622 355.192 308.83 355.344 309.088C355.502 309.339 355.581 309.663 355.581 310.06C355.581 310.403 355.492 310.724 355.314 311.021C355.135 311.318 354.871 311.563 354.521 311.754C354.171 311.94 353.735 312.032 353.213 312.032ZM358.791 312.032C358.315 312.032 357.895 311.92 357.532 311.695C357.168 311.47 356.881 311.156 356.67 310.753C356.465 310.35 356.362 309.881 356.362 309.346C356.362 308.797 356.465 308.322 356.67 307.919C356.874 307.509 357.159 307.192 357.522 306.967C357.892 306.736 358.318 306.62 358.801 306.62C359.303 306.62 359.726 306.732 360.069 306.957C360.42 307.182 360.684 307.482 360.862 307.859C361.047 308.236 361.14 308.652 361.14 309.108C361.14 309.174 361.137 309.243 361.13 309.316C361.13 309.389 361.127 309.468 361.12 309.554H357.096V308.86H360.159C360.145 308.404 360.01 308.054 359.752 307.81C359.494 307.565 359.174 307.443 358.791 307.443C358.526 307.443 358.285 307.509 358.067 307.641C357.849 307.767 357.671 307.955 357.532 308.206C357.4 308.451 357.334 308.761 357.334 309.138V309.415C357.334 309.805 357.4 310.136 357.532 310.406C357.664 310.671 357.839 310.872 358.057 311.011C358.275 311.143 358.516 311.209 358.781 311.209C359.118 311.209 359.382 311.147 359.574 311.021C359.765 310.889 359.907 310.707 360 310.476H361.001C360.915 310.773 360.77 311.041 360.565 311.279C360.367 311.51 360.116 311.695 359.812 311.834C359.514 311.966 359.174 312.032 358.791 312.032ZM362.083 311.913V304.776H363.074V311.913H362.083ZM364.266 311.913V304.776H365.257V311.913H364.266ZM371.839 312.032C371.178 312.032 370.603 311.883 370.114 311.586C369.632 311.282 369.258 310.862 368.994 310.327C368.73 309.785 368.598 309.158 368.598 308.444C368.598 307.737 368.73 307.112 368.994 306.571C369.258 306.029 369.632 305.609 370.114 305.312C370.603 305.008 371.178 304.856 371.839 304.856C372.638 304.856 373.289 305.051 373.792 305.441C374.294 305.83 374.614 306.379 374.753 307.086H373.683C373.577 306.676 373.369 306.349 373.058 306.105C372.754 305.86 372.348 305.738 371.839 305.738C371.383 305.738 370.986 305.847 370.649 306.065C370.319 306.283 370.065 306.594 369.886 306.997C369.708 307.4 369.619 307.882 369.619 308.444C369.619 309.006 369.708 309.491 369.886 309.901C370.065 310.304 370.319 310.615 370.649 310.833C370.986 311.044 371.383 311.15 371.839 311.15C372.348 311.15 372.754 311.034 373.058 310.803C373.369 310.565 373.577 310.245 373.683 309.841H374.753C374.614 310.529 374.294 311.067 373.792 311.457C373.289 311.84 372.638 312.032 371.839 312.032ZM375.732 311.913V306.739H376.624L376.703 307.681C376.822 307.449 376.978 307.254 377.169 307.096C377.361 306.937 377.589 306.818 377.853 306.739C378.118 306.66 378.415 306.62 378.745 306.62V307.661H378.21C378.012 307.661 377.823 307.687 377.645 307.74C377.467 307.786 377.308 307.869 377.169 307.988C377.031 308.1 376.921 308.256 376.842 308.454C376.763 308.645 376.723 308.887 376.723 309.177V311.913H375.732ZM380.097 314.094L381.277 311.358H380.99L379.027 306.739H380.097L381.654 310.525L383.21 306.739H384.251L381.138 314.094H380.097ZM384.977 314.094V306.739H385.869L385.958 307.512C386.064 307.347 386.196 307.198 386.354 307.066C386.513 306.934 386.701 306.828 386.919 306.749C387.137 306.663 387.392 306.62 387.683 306.62C388.152 306.62 388.561 306.739 388.912 306.977C389.268 307.215 389.546 307.539 389.744 307.948C389.942 308.351 390.042 308.814 390.042 309.336C390.042 309.851 389.939 310.314 389.734 310.724C389.536 311.133 389.259 311.454 388.902 311.685C388.551 311.916 388.145 312.032 387.683 312.032C387.286 312.032 386.942 311.956 386.652 311.804C386.361 311.645 386.133 311.427 385.968 311.15V314.094H384.977ZM387.504 311.17C387.801 311.17 388.062 311.097 388.287 310.952C388.518 310.8 388.7 310.585 388.832 310.307C388.964 310.03 389.031 309.703 389.031 309.326C389.031 308.949 388.964 308.626 388.832 308.355C388.7 308.077 388.518 307.862 388.287 307.71C388.062 307.558 387.801 307.482 387.504 307.482C387.2 307.482 386.932 307.558 386.701 307.71C386.47 307.862 386.292 308.077 386.166 308.355C386.04 308.626 385.978 308.949 385.978 309.326C385.978 309.703 386.04 310.03 386.166 310.307C386.292 310.585 386.47 310.8 386.701 310.952C386.932 311.097 387.2 311.17 387.504 311.17ZM392.949 311.913C392.638 311.913 392.367 311.864 392.136 311.764C391.905 311.665 391.726 311.5 391.601 311.269C391.475 311.038 391.412 310.724 391.412 310.327V307.572H390.51V306.739H391.412L391.531 305.411H392.404V306.739H393.831V307.572H392.404V310.337C392.404 310.621 392.46 310.816 392.572 310.922C392.691 311.021 392.899 311.071 393.197 311.071H393.821V311.913H392.949ZM396.927 312.032C396.444 312.032 396.015 311.92 395.638 311.695C395.268 311.47 394.977 311.156 394.766 310.753C394.554 310.344 394.449 309.868 394.449 309.326C394.449 308.778 394.554 308.302 394.766 307.899C394.977 307.496 395.271 307.182 395.648 306.957C396.025 306.732 396.454 306.62 396.937 306.62C397.426 306.62 397.855 306.732 398.225 306.957C398.602 307.182 398.893 307.496 399.097 307.899C399.309 308.302 399.415 308.778 399.415 309.326C399.415 309.868 399.309 310.344 399.097 310.753C398.886 311.156 398.592 311.47 398.215 311.695C397.845 311.92 397.416 312.032 396.927 312.032ZM396.927 311.18C397.204 311.18 397.452 311.11 397.67 310.971C397.895 310.833 398.073 310.628 398.205 310.357C398.337 310.079 398.404 309.736 398.404 309.326C398.404 308.916 398.337 308.576 398.205 308.305C398.08 308.028 397.908 307.819 397.69 307.681C397.472 307.542 397.221 307.473 396.937 307.473C396.666 307.473 396.418 307.542 396.193 307.681C395.969 307.819 395.79 308.028 395.658 308.305C395.532 308.576 395.47 308.916 395.47 309.326C395.47 309.736 395.532 310.079 395.658 310.357C395.79 310.628 395.965 310.833 396.183 310.971C396.401 311.11 396.649 311.18 396.927 311.18Z" fill="#201E2D"/>
</g>
<defs>
<filter id="filter0_d_633_9401" x="0.192008" y="0.895936" width="507.48" height="752.801" filterUnits="userSpaceOnUse" color-interpolation-filters="sRGB">
<feFlood flood-opacity="0" result="BackgroundImageFix"/>
<feColorMatrix in="SourceAlpha" type="matrix" values="0 0 0 0 0 0 0 0 0 0 0 0 0 0 0 0 0 0 127 0" result="hardAlpha"/>
<feOffset dx="-11.1585" dy="12.1729"/>
<feGaussianBlur stdDeviation="15.8248"/>
<feComposite in2="hardAlpha" operator="out"/>
<feColorMatrix type="matrix" values="0 0 0 0 0 0 0 0 0 0 0 0 0 0 0 0 0 0 0.25 0"/>
<feBlend mode="normal" in2="BackgroundImageFix" result="effect1_dropShadow_633_9401"/>
<feBlend mode="normal" in="SourceGraphic" in2="effect1_dropShadow_633_9401" result="shape"/>
</filter>
<clipPath id="clip0_633_9401">
<rect width="14.868" height="14.868" fill="white" transform="translate(291.325 154.183)"/>
</clipPath>
<clipPath id="clip1_633_9401">
<rect x="135.926" y="253.831" width="37.1699" height="37.1699" rx="18.585" fill="white"/>
</clipPath>
<clipPath id="clip2_633_9401">
<path d="M202.832 272.416C202.832 262.152 211.153 253.831 221.417 253.831C231.681 253.831 240.002 262.152 240.002 272.416C240.002 282.68 231.681 291.001 221.417 291.001C211.153 291.001 202.832 282.68 202.832 272.416Z" fill="white"/>
</clipPath>
<clipPath id="clip3_633_9401">
<rect x="279.649" y="253.831" width="37.1699" height="37.1699" rx="18.585" fill="white"/>
</clipPath>
<clipPath id="clip4_633_9401">
<path d="M356.468 272.416C356.468 262.152 364.789 253.831 375.053 253.831C385.317 253.831 393.638 262.152 393.638 272.416C393.638 282.68 385.317 291.001 375.053 291.001C364.789 291.001 356.468 282.68 356.468 272.416Z" fill="white"/>
</clipPath>
<clipPath id="clip5_633_9401">
<rect width="20.4435" height="20.4435" fill="white" transform="translate(364.831 261.896)"/>
</clipPath>
</defs>
</svg>
